<svg width="128" height="128" viewBox="0 0 128 128" xmlns="http://www.w3.org/2000/svg">
  <g fill="none" fill-rule="evenodd">
    <g fill-rule="nonzero">
      <g>
        <path fill="#D32F2F" d="M0 -7.10542736e-15L128 -7.10542736e-15 128 128 1.36223684e-15 128"/>
        <path d="M51.8393097,82.240354 C37.0548281,86.3640917 60.8346407,94.883048 79.6603578,86.8309155 C76.5766625,85.6342471 74.364999,84.2537716 74.364999,84.2537716 C65.9705379,85.8380498 62.0764386,85.9626387 54.4561753,85.0935929 C48.1670701,84.3745152 51.8393097,82.240354 51.8393097,82.240354 L51.8393097,82.240354 Z M77.4063252,74.1959121 C66.2794467,76.3331496 59.8524495,76.2647026 51.7122026,75.4264195 C45.417705,74.7765578 49.538286,71.7310521 49.538286,71.7310521 C33.2554813,77.1268268 58.6029482,83.24937 81.3605116,76.6038612 C78.9416249,75.753273 77.4063252,74.1959121 77.4063252,74.1959121 L77.4063252,74.1959121 Z M86.1258723,27.6096728 C86.1266426,27.6096728 53.2082147,35.8148497 68.9294371,53.9017696 C73.5700018,59.2352499 67.7122904,64.0303833 67.7122904,64.0303833 C67.7122904,64.0303833 79.4901113,57.9616748 74.082282,50.3586775 C69.0295821,43.2717242 65.1562821,39.7509351 86.1258723,27.6096728 L86.1258723,27.6096728 Z M93.8277922,90.0148532 C93.8277922,90.0148532 96.5463435,92.2528385 90.8326867,93.9824704 C79.9692666,97.267925 45.6087508,98.2584834 36.0649334,94.1139809 C32.6368934,92.6235288 39.0685127,90.5570455 41.0922118,90.1209845 C43.2021897,89.6649277 44.4070109,89.747987 44.4070109,89.747987 C40.5922572,87.06625 19.7459224,95.0160966 33.8209153,97.2963805 C72.2003265,103.507366 103.781434,94.4992835 93.8277922,90.0148532 L93.8277922,90.0148532 Z M80.6371566,66.686741 C82.4821354,65.4300854 85.0304402,64.3387792 85.0304402,64.3387792 C85.0304402,64.3387792 77.7706989,65.6346572 70.5379197,66.2414512 C61.6835621,66.9828318 52.1859655,67.1289546 47.4182937,66.492167 C36.1311832,64.9855646 53.6064836,60.841062 53.6064836,60.841062 C53.6064836,60.841062 46.8181941,60.382698 38.4738055,64.4126096 C28.6041318,69.1769803 62.8868426,71.3488258 80.6371566,66.686741 Z M84.9580277,78.3342622 C84.8748303,78.5572916 84.5975057,78.8080075 84.5975057,78.8080075 C108.688538,72.4855069 99.8310991,56.5212121 88.3121144,60.5618907 C87.3014204,60.9187378 86.7714223,61.7485612 86.7714223,61.7485612 C86.7714223,61.7485612 87.4100392,61.4916928 88.8344091,61.1948329 C94.6574549,59.9835522 103.000303,68.9770228 84.9580277,78.3342622 Z M64.5993219,60.6672529 C61.0449452,52.6466521 48.9921107,45.6296839 64.6047143,33.319996 C84.0721297,17.9794146 74.0830523,8 74.0830523,8 C78.1119622,23.8489347 59.8693971,28.6363774 53.2844789,38.5065845 C48.8002945,45.2320762 55.4853576,52.4589997 64.5993219,60.6672529 L64.5993219,60.6672529 Z M85.6097404,100.464937 C70.8291105,103.242807 52.5973303,102.91903 41.787064,101.137102 C41.787064,101.137102 44.0010385,102.967481 55.3805906,103.698864 C72.6948887,104.804013 99.2903162,103.08361 99.9189186,94.9038128 C99.9196889,94.9038128 98.7094752,98.0046913 85.6097404,100.464937 L85.6097404,100.464937 Z" fill="#FFF"/>
      </g>
    </g>
  </g>
</svg>
